<svg width="16" height="10" viewBox="0 0 16 10" version="1.1" xmlns="http://www.w3.org/2000/svg" xmlns:xlink="http://www.w3.org/1999/xlink">
<g id="Canvas" transform="matrix(2 0 0 2 -6176 -176)">
<g id="Vector">
<use xlink:href="#path0_stroke" transform="matrix(1 2.67189e-24 -2.67189e-24 1 3089 89)"/>
</g>
</g>
<defs>
<path id="path0_stroke" d="M 6.70711 0.707107C 7.09763 0.316583 7.09763 -0.316583 6.70711 -0.707107C 6.31658 -1.09763 5.68342 -1.09763 5.29289 -0.707107L 6.70711 0.707107ZM 3 3L 2.29289 3.70711C 2.68342 4.09763 3.31658 4.09763 3.70711 3.70711L 3 3ZM 0.707107 -0.707107C 0.316583 -1.09763 -0.316583 -1.09763 -0.707107 -0.707107C -1.09763 -0.316583 -1.09763 0.316583 -0.707107 0.707107L 0.707107 -0.707107ZM 5.29289 -0.707107L 2.29289 2.29289L 3.70711 3.70711L 6.70711 0.707107L 5.29289 -0.707107ZM 3.70711 2.29289L 0.707107 -0.707107L -0.707107 0.707107L 2.29289 3.70711L 3.70711 2.29289Z"/>
</defs>
</svg>
