<svg width="18" height="18" viewBox="0 0 18 18" version="1.1" xmlns="http://www.w3.org/2000/svg" xmlns:xlink="http://www.w3.org/1999/xlink">
<g id="canvas-hide-left" transform="translate(-2893 -13)">
<g id="hide-left">
<g id="rectangle-hide-left">
<use xlink:href="#path0_fill-hide-left" transform="translate(2893 13)"/>
</g>
<g id="vector-hide-left">
<use xlink:href="#path1_fill-hide-left" transform="translate(2896 16)"/>
</g>
</g>
</g>
<defs>
<path id="path0_fill-hide-left" fill-rule="evenodd" d="M 0 3C 0 1.34315 1.34315 0 3 0L 15 0C 16.6569 0 18 1.34315 18 3L 18 15C 18 16.6569 16.6569 18 15 18L 3 18C 1.34315 18 0 16.6569 0 15L 0 3ZM 3 2C 2.44772 2 2 2.44772 2 3L 2 15C 2 15.5523 2.44772 16 3 16L 15 16C 15.5523 16 16 15.5523 16 15L 16 3C 16 2.44772 15.5523 2 15 2L 3 2Z"/>
<path id="path1_fill-hide-left" fill-rule="evenodd" d="M 0 1C 0 0.447715 0.447715 0 1 0L 2.9999 0C 3.55218 0 3.9999 0.447715 3.9999 1L 3.9999 11C 3.9999 11.5523 3.55218 12 2.9999 12L 1 12C 0.447715 12 0 11.5523 0 11L 0 1Z"/>
</defs>
</svg>
