<svg width="64" height="64" viewBox="0 0 64 64" version="1.1" xmlns="http://www.w3.org/2000/svg" xmlns:xlink="http://www.w3.org/1999/xlink">
<title>Logotype</title>
<desc>Created using Figma</desc>
<g id="Canvas" transform="translate(-688 -64)">
<g id="Logotype">
<g id="Code">
<g id="Rectangle 2" opacity="0.16">
<use xlink:href="#path0_fill" transform="translate(725.703 75.7544)" fill="#FFFFFF"/>
</g>
<g id="Rectangle 2.19" opacity="0.48">
<use xlink:href="#path1_fill" transform="translate(699.503 75.7544)" fill="#FFFFFF"/>
</g>
<g id="Rectangle 2.2" opacity="0.48">
<use xlink:href="#path2_fill" transform="translate(702.679 90.0454)" fill="#FFFFFF"/>
</g>
<g id="Rectangle 2.5" opacity="0.48">
<use xlink:href="#path3_fill" transform="translate(705.855 94.8091)" fill="#FFFFFF"/>
</g>
<g id="Rectangle 2.16" opacity="0.16">
<use xlink:href="#path4_fill" transform="translate(727.291 94.8091)" fill="#FFFFFF"/>
</g>
<g id="Rectangle 2.6" opacity="0.48">
<use xlink:href="#path5_fill" transform="translate(699.503 99.5728)" fill="#FFFFFF"/>
</g>
<g id="Rectangle 2.15" opacity="0.16">
<use xlink:href="#path6_fill" transform="translate(713.397 99.5728)" fill="#FFFFFF"/>
</g>
<g id="Rectangle 2.7" opacity="0.48">
<use xlink:href="#path7_fill" transform="translate(702.679 104.336)" fill="#FFFFFF"/>
</g>
<g id="Rectangle 2.3" opacity="0.48">
<use xlink:href="#path7_fill" transform="translate(702.679 80.5181)" fill="#FFFFFF"/>
</g>
<g id="Rectangle 2.4" opacity="0.48">
<use xlink:href="#path8_fill" transform="translate(699.503 85.2818)" fill="#FFFFFF"/>
</g>
<g id="Rectangle 2.14" opacity="0.16">
<use xlink:href="#path9_fill" transform="translate(724.116 85.2818)" fill="#FFFFFF"/>
</g>
<g id="Rectangle 2.8" opacity="0.48">
<use xlink:href="#path10_fill" transform="translate(702.679 109.1)" fill="#FFFFFF"/>
</g>
<g id="Rectangle 2.17" opacity="0.16">
<use xlink:href="#path11_fill" transform="translate(718.955 109.1)" fill="#FFFFFF"/>
</g>
<g id="Rectangle 2.13" opacity="0.48">
<use xlink:href="#path12_fill" transform="translate(699.503 113.864)" fill="#FFFFFF"/>
</g>
<g id="Rectangle 2.18" opacity="0.16">
<use xlink:href="#path13_fill" transform="translate(718.955 113.864)" fill="#FFFFFF"/>
</g>
</g>
<g id="diamond (Stroke)">
<use xlink:href="#path14_fill" transform="matrix(-0.707107 -0.707107 -0.707107 0.707107 752 96)" fill="#FFFFFF"/>
</g>
</g>
</g>
<defs>
<path id="path0_fill" d="M 0 1.19092C 0 0.533192 0.533192 0 1.19092 0L 13.1001 0C 13.7578 0 14.291 0.533192 14.291 1.19092L 14.291 1.19092C 14.291 1.84864 13.7578 2.38183 13.1001 2.38183L 1.19092 2.38183C 0.533191 2.38183 0 1.84864 0 1.19092L 0 1.19092Z"/>
<path id="path1_fill" d="M 0 1.19092C 0 0.533192 0.533192 0 1.19092 0L 22.6274 0C 23.2851 0 23.8183 0.533192 23.8183 1.19092L 23.8183 1.19092C 23.8183 1.84864 23.2851 2.38183 22.6274 2.38183L 1.19092 2.38183C 0.533192 2.38183 0 1.84864 0 1.19092L 0 1.19092Z"/>
<path id="path2_fill" d="M 0 1.19092C 0 0.533192 0.533192 0 1.19092 0L 31.3608 0C 32.0185 0 32.5517 0.533192 32.5517 1.19092L 32.5517 1.19092C 32.5517 1.84864 32.0185 2.38183 31.3608 2.38183L 1.19092 2.38183C 0.533192 2.38183 0 1.84864 0 1.19092L 0 1.19092Z"/>
<path id="path3_fill" d="M 0 1.19092C 0 0.533192 0.533192 0 1.19092 0L 17.8638 0C 18.5215 0 19.0547 0.533192 19.0547 1.19092L 19.0547 1.19092C 19.0547 1.84864 18.5215 2.38183 17.8638 2.38183L 1.19092 2.38183C 0.533192 2.38183 0 1.84864 0 1.19092L 0 1.19092Z"/>
<path id="path4_fill" d="M 0 1.19092C 0 0.533192 0.533192 0 1.19092 0L 11.5122 0C 12.1699 0 12.7031 0.533192 12.7031 1.19092L 12.7031 1.19092C 12.7031 1.84864 12.1699 2.38183 11.5122 2.38183L 1.19092 2.38183C 0.533191 2.38183 0 1.84864 0 1.19092L 0 1.19092Z"/>
<path id="path5_fill" d="M 0 1.19092C 0 0.533192 0.533192 0 1.19092 0L 10.3213 0C 10.979 0 11.5122 0.533192 11.5122 1.19092L 11.5122 1.19092C 11.5122 1.84864 10.979 2.38183 10.3213 2.38183L 1.19092 2.38183C 0.533192 2.38183 0 1.84864 0 1.19092L 0 1.19092Z"/>
<path id="path6_fill" d="M 0 1.19092C 0 0.533192 0.533192 0 1.19092 0L 19.4516 0C 20.1094 0 20.6426 0.533192 20.6426 1.19092L 20.6426 1.19092C 20.6426 1.84864 20.1094 2.38183 19.4516 2.38183L 1.19092 2.38183C 0.533192 2.38183 0 1.84864 0 1.19092L 0 1.19092Z"/>
<path id="path7_fill" d="M 0 1.19092C 0 0.533192 0.533192 0 1.19092 0L 24.2153 0C 24.873 0 25.4062 0.533192 25.4062 1.19092L 25.4062 1.19092C 25.4062 1.84864 24.873 2.38183 24.2153 2.38183L 1.19092 2.38183C 0.533191 2.38183 0 1.84864 0 1.19092L 0 1.19092Z"/>
<path id="path8_fill" d="M 0 1.19092C 0 0.533192 0.533192 0 1.19092 0L 21.0395 0C 21.6973 0 22.2304 0.533192 22.2304 1.19092L 22.2304 1.19092C 22.2304 1.84864 21.6973 2.38183 21.0395 2.38183L 1.19092 2.38183C 0.533192 2.38183 0 1.84864 0 1.19092L 0 1.19092Z"/>
<path id="path9_fill" d="M 0 1.19092C 0 0.533192 0.533192 0 1.19092 0L 7.1455 0C 7.80323 0 8.33642 0.533192 8.33642 1.19092L 8.33642 1.19092C 8.33642 1.84864 7.80323 2.38183 7.1455 2.38183L 1.19092 2.38183C 0.533192 2.38183 0 1.84864 0 1.19092L 0 1.19092Z"/>
<path id="path10_fill" d="M 0 1.19092C 0 0.533192 0.533192 0 1.19092 0L 12.7031 0C 13.3608 0 13.894 0.533192 13.894 1.19092L 13.894 1.19092C 13.894 1.84864 13.3608 2.38183 12.7031 2.38183L 1.19092 2.38183C 0.533191 2.38183 0 1.84864 0 1.19092L 0 1.19092Z"/>
<path id="path11_fill" d="M 0 1.19092C 0 0.533192 0.533192 0 1.19092 0L 11.1152 0C 11.7729 0 12.3061 0.533192 12.3061 1.19092L 12.3061 1.19092C 12.3061 1.84864 11.7729 2.38183 11.1152 2.38183L 1.19092 2.38183C 0.533191 2.38183 0 1.84864 0 1.19092L 0 1.19092Z"/>
<path id="path12_fill" d="M 0 1.19092C 0 0.533192 0.533192 0 1.19092 0L 15.8789 0C 16.5366 0 17.0698 0.533192 17.0698 1.19092L 17.0698 1.19092C 17.0698 1.84864 16.5366 2.38183 15.8789 2.38183L 1.19092 2.38183C 0.533192 2.38183 0 1.84864 0 1.19092L 0 1.19092Z"/>
<path id="path13_fill" d="M 0 1.19092C 0 0.533192 0.533192 0 1.19092 0L 16.6728 0C 17.3306 0 17.8638 0.533192 17.8638 1.19092L 17.8638 1.19092C 17.8638 1.84864 17.3306 2.38183 16.6728 2.38183L 1.19092 2.38183C 0.533192 2.38183 0 1.84864 0 1.19092L 0 1.19092Z"/>
<path id="path14_fill" fill-rule="evenodd" d="M 10.7183 2.38183C 10.3357 2.38119 9.99744 2.40355 9.62793 2.45236C 8.97573 2.53743 8.37805 2.07768 8.29298 1.42548C 8.20791 0.773284 8.66765 0.175606 9.31985 0.0905319C 9.76488 0.0330941 10.2573 0.000646051 10.7183 0L 12.0415 0C 12.6992 0 13.2324 0.533192 13.2324 1.19092C 13.2324 1.84864 12.6992 2.38183 12.0415 2.38183L 10.7183 2.38183ZM 16.1435 1.19092C 16.1435 0.533192 16.6767 0 17.3345 0L 19.9809 0C 20.6387 0 21.1719 0.533192 21.1719 1.19092C 21.1719 1.84864 20.6387 2.38183 19.9809 2.38183L 17.3345 2.38183C 16.6767 2.38183 16.1435 1.84864 16.1435 1.19092ZM 24.083 1.19092C 24.083 0.533192 24.6162 0 25.2739 0L 27.9204 0C 28.5781 0 29.1113 0.533192 29.1113 1.19092C 29.1113 1.84864 28.5781 2.38183 27.9204 2.38183L 25.2739 2.38183C 24.6162 2.38183 24.083 1.84864 24.083 1.19092ZM 32.0224 1.19092C 32.0224 0.533192 32.5556 0 33.2133 0L 34.5366 0C 34.9976 0.000646051 35.49 0.0330941 35.935 0.090532C 36.5872 0.175606 37.0469 0.773285 36.9619 1.42548C 36.8768 2.07768 36.2791 2.53743 35.6269 2.45236C 35.2574 2.40355 34.9191 2.38119 34.5366 2.38183L 33.2133 2.38183C 32.5556 2.38183 32.0224 1.84864 32.0224 1.19092ZM 5.86246 2.43361C 6.26323 2.95513 6.16534 3.7028 5.64382 4.10357C 5.0437 4.56156 4.56156 5.0437 4.10357 5.64382C 3.7028 6.16534 2.95514 6.26323 2.43361 5.86246C 1.91209 5.46169 1.8142 4.71403 2.21497 4.1925C 2.77136 3.47261 3.47261 2.77136 4.1925 2.21497C 4.71403 1.8142 5.46169 1.91209 5.86246 2.43361ZM 39.3924 2.43361C 39.7931 1.91209 40.5408 1.8142 41.0623 2.21497C 41.7822 2.77136 42.4835 3.47261 43.0399 4.1925C 43.4406 4.71403 43.3427 5.46169 42.8212 5.86246C 42.2997 6.26323 41.552 6.16534 41.1513 5.64382C 40.6933 5.0437 40.2111 4.56156 39.611 4.10357C 39.0895 3.7028 38.9916 2.95514 39.3924 2.43361ZM 1.42548 8.29298C 2.07768 8.37805 2.53743 8.97573 2.45236 9.62793C 2.40355 9.99744 2.38119 10.3357 2.38183 10.7183L 2.38183 12.0415C 2.38183 12.6992 1.84864 13.2324 1.19092 13.2324C 0.533192 13.2324 0 12.6992 0 12.0415L 0 10.7183C 0.000646051 10.2573 0.0330941 9.76487 0.090532 9.31985C 0.175606 8.66765 0.773285 8.20791 1.42548 8.29298ZM 43.8294 8.29298C 44.4816 8.20791 45.0792 8.66765 45.1643 9.31985C 45.2217 9.76488 45.2542 10.2573 45.2548 10.7183L 45.2548 12.0415C 45.2548 12.6992 44.7216 13.2324 44.0639 13.2324C 43.4062 13.2324 42.873 12.6992 42.873 12.0415L 42.873 10.7183C 42.8736 10.3357 42.8513 9.99744 42.8025 9.62793C 42.7174 8.97573 43.1772 8.37805 43.8294 8.29298ZM 1.19092 16.1435C 1.84864 16.1435 2.38183 16.6767 2.38183 17.3345L 2.38183 19.9809C 2.38183 20.6387 1.84864 21.1719 1.19092 21.1719C 0.533192 21.1719 0 20.6387 0 19.9809L 0 17.3345C 0 16.6767 0.533192 16.1435 1.19092 16.1435ZM 44.0639 16.1435C 44.7216 16.1435 45.2548 16.6767 45.2548 17.3345L 45.2548 19.9809C 45.2548 20.6387 44.7216 21.1719 44.0639 21.1719C 43.4062 21.1719 42.873 20.6387 42.873 19.9809L 42.873 17.3345C 42.873 16.6767 43.4062 16.1435 44.0639 16.1435ZM 44.0639 24.083C 44.7216 24.083 45.2548 24.6162 45.2548 25.2739L 45.2548 27.9204C 45.2548 28.5781 44.7216 29.1113 44.0639 29.1113C 43.4062 29.1113 42.873 28.5781 42.873 27.9204L 42.873 25.2739C 42.873 24.6162 43.4062 24.083 44.0639 24.083ZM 1.19092 24.083C 1.84864 24.083 2.38183 24.6162 2.38183 25.2739L 2.38183 27.9204C 2.38183 28.5781 1.84864 29.1113 1.19092 29.1113C 0.533192 29.1113 0 28.5781 0 27.9204L 0 25.2739C 0 24.6162 0.533192 24.083 1.19092 24.083ZM 1.19092 32.0224C 1.84864 32.0224 2.38183 32.5556 2.38183 33.2133L 2.38183 34.5366C 2.38119 34.9191 2.40355 35.2574 2.45236 35.6269C 2.53743 36.2791 2.07768 36.8768 1.42548 36.9619C 0.773284 37.0469 0.175606 36.5872 0.0905319 35.935C 0.0330941 35.49 0.000646051 34.9976 0 34.5366L 0 33.2133C 0 32.5556 0.533192 32.0224 1.19092 32.0224ZM 44.0639 32.0224C 44.7216 32.0224 45.2548 32.5556 45.2548 33.2133L 45.2548 34.5366C 45.2542 34.9976 45.2217 35.49 45.1643 35.935C 45.0792 36.5872 44.4816 37.0469 43.8294 36.9619C 43.1772 36.8768 42.7174 36.2791 42.8025 35.6269C 42.8513 35.2574 42.8736 34.9191 42.873 34.5366L 42.873 33.2133C 42.873 32.5556 43.4062 32.0224 44.0639 32.0224ZM 2.43361 39.3924C 2.95513 38.9916 3.7028 39.0895 4.10357 39.611C 4.56156 40.2111 5.0437 40.6933 5.64382 41.1513C 6.16534 41.552 6.26323 42.2997 5.86246 42.8212C 5.46169 43.3427 4.71403 43.4406 4.1925 43.0399C 3.47261 42.4835 2.77136 41.7822 2.21497 41.0623C 1.8142 40.5408 1.91209 39.7931 2.43361 39.3924ZM 42.8212 39.3924C 43.3427 39.7931 43.4406 40.5408 43.0399 41.0623C 42.4835 41.7822 41.7822 42.4835 41.0623 43.0399C 40.5408 43.4406 39.7931 43.3427 39.3924 42.8212C 38.9916 42.2997 39.0895 41.552 39.611 41.1513C 40.2111 40.6933 40.6933 40.2111 41.1513 39.611C 41.552 39.0895 42.2997 38.9916 42.8212 39.3924ZM 8.29298 43.8294C 8.37805 43.1772 8.97573 42.7174 9.62793 42.8025C 9.99744 42.8513 10.3357 42.8736 10.7183 42.873L 12.0415 42.873C 12.6992 42.873 13.2324 43.4062 13.2324 44.0639C 13.2324 44.7216 12.6992 45.2548 12.0415 45.2548L 10.7183 45.2548C 10.2573 45.2542 9.76487 45.2217 9.31985 45.1643C 8.66765 45.0792 8.20791 44.4816 8.29298 43.8294ZM 36.9619 43.8294C 37.0469 44.4816 36.5872 45.0792 35.935 45.1643C 35.49 45.2217 34.9976 45.2542 34.5366 45.2548L 33.2133 45.2548C 32.5556 45.2548 32.0224 44.7216 32.0224 44.0639C 32.0224 43.4062 32.5556 42.873 33.2133 42.873L 34.5366 42.873C 34.9191 42.8736 35.2574 42.8513 35.6269 42.8025C 36.2791 42.7174 36.8768 43.1772 36.9619 43.8294ZM 16.1435 44.0639C 16.1435 43.4062 16.6767 42.873 17.3345 42.873L 19.9809 42.873C 20.6387 42.873 21.1719 43.4062 21.1719 44.0639C 21.1719 44.7216 20.6387 45.2548 19.9809 45.2548L 17.3345 45.2548C 16.6767 45.2548 16.1435 44.7216 16.1435 44.0639ZM 24.083 44.0639C 24.083 43.4062 24.6162 42.873 25.2739 42.873L 27.9204 42.873C 28.5781 42.873 29.1113 43.4062 29.1113 44.0639C 29.1113 44.7216 28.5781 45.2548 27.9204 45.2548L 25.2739 45.2548C 24.6162 45.2548 24.083 44.7216 24.083 44.0639Z"/>
</defs>
</svg>
