<?xml version="1.0" encoding="iso-8859-1"?>
<svg xmlns="http://www.w3.org/2000/svg" xmlns:xlink="http://www.w3.org/1999/xlink" version="1.1" id="Layer_1" x="0px" y="0px" viewBox="0 0 30 30" style="enable-background:new 0 0 30 30;" xml:space="preserve" width="24px" height="24px">
<path d="M15,18c1.657,0,3-1.343,3-3s-1.343-3-3-3s-3,1.343-3,3S13.343,18,15,18z"/>
<path d="M25,18c1.657,0,3-1.343,3-3s-1.343-3-3-3s-3,1.343-3,3S23.343,18,25,18z"/>
<path d="M5,18c1.657,0,3-1.343,3-3s-1.343-3-3-3s-3,1.343-3,3S3.343,18,5,18z"/>
</svg>
